<svg width="96" height="96" viewBox="0 0 96 96" fill="none" xmlns="http://www.w3.org/2000/svg">
<g clip-path="url(#clip0_107_17)">
<rect width="96" height="96" fill="white"/>
<path fill-rule="evenodd" clip-rule="evenodd" d="M48 66C48 66 69 30.7029 69 19.7792C69 8.85544 59.598 0 48 0C36.402 0 27 8.85544 27 19.7792C27 30.7029 48 66 48 66ZM48 26.765C52.9706 26.765 57.5 23.2926 57.5 19.0092C57.5 14.7258 52.9706 11.2535 48 11.2535C43.0294 11.2535 39 14.7258 39 19.0092C39 23.2926 43.0294 26.765 48 26.765Z" fill="#98DBEA" fill-opacity="0.64"/>
<path fill-rule="evenodd" clip-rule="evenodd" d="M68.3998 35.9937C68.7228 35.2095 69.7362 34.7952 70.6634 35.0684L93.2163 41.7122C94.8831 42.2033 96 43.5325 96 45.0253V91.7623C96 94.1972 93.1389 95.8917 90.4334 95.059L71.3138 89.1749C71.1829 89.1346 71.0394 89.1346 70.9085 89.1749L49.4185 95.7885C48.5022 96.0705 47.4978 96.0705 46.5815 95.7885L25.0915 89.1749C24.9606 89.1346 24.8171 89.1346 24.6862 89.1749L5.5666 95.059C2.8611 95.8917 0 94.1972 0 91.7623V45.0045C0 43.5296 1.09084 42.2121 2.72969 41.7078L24.281 35.0753C25.2036 34.7914 26.2238 35.1938 26.5595 35.9741C26.8952 36.7544 26.4195 37.6172 25.4968 37.9011L3.94551 44.5336C3.71139 44.6056 3.55556 44.7938 3.55556 45.0045V91.7623C3.55556 92.1101 3.96429 92.3522 4.35078 92.2332L23.4704 86.3491C24.3867 86.0671 25.3911 86.0671 26.3073 86.3491L47.7974 92.9627C47.9283 93.003 48.0717 93.003 48.2026 92.9627L69.6927 86.3491C70.6089 86.0671 71.6133 86.0671 72.5296 86.3491L91.6492 92.2332C92.0357 92.3522 92.4444 92.1101 92.4444 91.7623V45.0253C92.4444 44.812 92.2849 44.6221 92.0468 44.552L69.4939 37.9081C68.5667 37.635 68.0768 36.7778 68.3998 35.9937Z" fill="#1893D9"/>
<path fill-rule="evenodd" clip-rule="evenodd" d="M24.8889 87.6086C23.907 87.6086 23.1111 86.9354 23.1111 86.105V66.0578C23.1111 65.2274 23.907 64.5543 24.8889 64.5543C25.8707 64.5543 26.6667 65.2274 26.6667 66.0578V86.105C26.6667 86.9354 25.8707 87.6086 24.8889 87.6086Z" fill="#1893D9"/>
<path fill-rule="evenodd" clip-rule="evenodd" d="M71.1111 87.6086C70.1293 87.6086 69.3333 86.9354 69.3333 86.105V66.0578C69.3333 65.2274 70.1293 64.5543 71.1111 64.5543C72.093 64.5543 72.8889 65.2274 72.8889 66.0578V86.105C72.8889 86.9354 72.093 87.6086 71.1111 87.6086Z" fill="#1893D9"/>
<path fill-rule="evenodd" clip-rule="evenodd" d="M47.4074 94.6251C46.4256 94.6251 45.6296 93.9519 45.6296 93.1215V76.0814C45.6296 75.251 46.4256 74.5779 47.4074 74.5779C48.3892 74.5779 49.1852 75.251 49.1852 76.0814V93.1215C49.1852 93.9519 48.3892 94.6251 47.4074 94.6251Z" fill="#1893D9"/>
<path fill-rule="evenodd" clip-rule="evenodd" d="M62.9259 30.7467C64.9486 25.8612 66.0833 22.0322 66.0833 19.861C66.0833 10.2957 57.7646 3.00708 48.1528 3.00708C38.5409 3.00708 30.2222 10.2957 30.2222 19.861C30.2222 22.0322 31.357 25.8612 33.3797 30.7467C35.3488 35.503 37.9917 40.8787 40.6594 45.9602C43.3228 51.0336 45.9892 55.7727 47.9915 59.246C48.0458 59.3401 48.0995 59.4332 48.1528 59.5255C48.206 59.4332 48.2598 59.3401 48.314 59.246C50.3163 55.7727 52.9828 51.0336 55.6462 45.9602C58.3139 40.8787 60.9567 35.503 62.9259 30.7467ZM50.1383 62.9255C55.4594 53.8341 69.6389 28.7718 69.6389 19.861C69.6389 8.89209 60.0192 0 48.1528 0C36.2863 0 26.6667 8.89209 26.6667 19.861C26.6667 28.7718 40.8461 53.8341 46.1673 62.9255C47.3963 65.0253 48.1528 66.2732 48.1528 66.2732C48.1528 66.2732 48.9092 65.0253 50.1383 62.9255ZM60.9167 19.0879C60.9167 25.0498 55.2021 29.8828 48.1528 29.8828C41.1035 29.8828 35.3889 25.0498 35.3889 19.0879C35.3889 13.126 41.1035 8.29296 48.1528 8.29296C55.2021 8.29296 60.9167 13.126 60.9167 19.0879ZM57.3611 19.0879C57.3611 23.389 53.2384 26.8758 48.1528 26.8758C43.0672 26.8758 38.9444 23.389 38.9444 19.0879C38.9444 14.7868 43.0672 11.3 48.1528 11.3C53.2384 11.3 57.3611 14.7868 57.3611 19.0879Z" fill="#1893D9"/>
</g>
<defs>
<clipPath id="clip0_107_17">
<rect width="96" height="96" fill="white"/>
</clipPath>
</defs>
</svg>
